# xmcd
#
# Track frame offsets: 
#        150
#        12487
#        22287
#        35947
#        48402
#        63242
#        78047
#        92332
#        104830
#        115367
#        130422
#        144122
#        157172
#        171742
#        181967
#        195897
#
# Disc length: 2742 seconds
#
# Revision: 3
# Processed by: cddbd v1.5.2PL0 Copyright (c) Steve Scherf et al.
# Submitted via: ExactAudioCopyFreeDBPlugin 1.0
#
DISCID=e10ab410
DTITLE=Tom Astor - Rollende Giganten
DYEAR=1900
DGENRE=Country
TTITLE0=Ich bin wieder auf der Autobahn
TTITLE1=Sicht weg - Gas weg
TTITLE2=Irgendwo am Horizont
TTITLE3=Von New York City nach LA
TTITLE4=Das schöne Mädchen von der Autobahn
TTITLE5=Truckers Glück
TTITLE6=Ich hör gerne Cajun-Musik
TTITLE7=Am Rand der Straße
TTITLE8=Highway Helden
TTITLE9=Halt Abstand Junge
TTITLE10=Krawattentrucker Erwin
TTITLE11=Buchstabiere L K W
TTITLE12=Devil
TTITLE13=Übermüdung tötet
TTITLE14=Rollende Giganten
TTITLE15=Danke Brummi
EXTD=ID3G:   2
EXTT0=
EXTT1=
EXTT2=
EXTT3=
EXTT4=
EXTT5=
EXTT6=
EXTT7=
EXTT8=
EXTT9=
EXTT10=
EXTT11=
EXTT12=
EXTT13=
EXTT14=
EXTT15=
PLAYORDER=
